<svg width="31" height="26" viewBox="0 0 31 26" fill="none" xmlns="http://www.w3.org/2000/svg">
<path d="M19.9355 9.12744H25.2675V12.0896H19.9355V9.12744Z" fill="white"/>
<path d="M5.59863 13.8669H10.9305V16.8291H5.59863V13.8669Z" fill="white"/>
<path d="M5.59863 9.12744H10.9305V12.0896H5.59863V9.12744Z" fill="white"/>
<path d="M12.708 10.3123H18.1584V15.6442H12.708V10.3123Z" fill="white"/>
<path d="M19.9355 13.8669H25.2675V16.8291H19.9355V13.8669Z" fill="white"/>
<path d="M11.8192 7.3503C12.31 7.3503 12.7079 7.74818 12.7079 8.23896V8.53517H14.5444V6.46165C14.5444 6.22592 14.638 5.99991 14.8047 5.83331L15.065 5.573H5.59863V7.3503H11.8192Z" fill="white"/>
<path d="M16.3213 6.82973V8.53517H18.1578V8.23896C18.1578 7.74818 18.5557 7.3503 19.0465 7.3503H25.2671V5.573H17.578L16.3213 6.82973Z" fill="white"/>
<path d="M19.0466 18.6065C18.5558 18.6065 18.1579 18.2086 18.1579 17.7178V17.4216H16.3214V19.4952C16.3214 19.7309 16.2277 19.9569 16.061 20.1235L15.8008 20.3838H25.2671V18.6065H19.0466Z" fill="white"/>
<path d="M14.5444 19.1271V17.4216H12.7079V17.7178C12.7079 18.2086 12.31 18.6065 11.8192 18.6065H5.59863V20.3838H13.2877L14.5444 19.1271Z" fill="white"/>
<path d="M26.156 0.240967H4.70987C2.25985 0.240967 0.266602 2.23422 0.266602 4.68423V21.2724C0.266602 23.7224 2.25985 25.7157 4.70987 25.7157H26.156C28.606 25.7157 30.5993 23.7224 30.5993 21.2724V4.68423C30.5993 2.23422 28.606 0.240967 26.156 0.240967ZM27.0447 21.2724C27.0447 21.7632 26.6468 22.1611 26.156 22.1611H4.70987C4.21909 22.1611 3.82121 21.7632 3.82121 21.2724V4.68423C3.82121 4.19346 4.21909 3.79558 4.70987 3.79558H26.156C26.6468 3.79558 27.0447 4.19346 27.0447 4.68423V21.2724Z" fill="white"/>
</svg>
