<svg width="483" height="407" viewBox="0 0 483 407" fill="none" xmlns="http://www.w3.org/2000/svg">
<path d="M148.708 29.8364H284.839V125.49C284.839 127.438 284.155 129.306 282.939 130.683C281.723 132.06 280.074 132.834 278.354 132.834H155.193C153.473 132.834 151.824 132.06 150.607 130.683C149.391 129.306 148.708 127.438 148.708 125.49V29.8364Z" fill="white"/>
<path d="M278.354 133.703H155.193C153.268 133.698 151.423 132.828 150.063 131.285C148.704 129.742 147.94 127.651 147.94 125.471V29.8363C147.94 29.6038 148.02 29.3806 148.164 29.2145C148.307 29.0483 148.503 28.9524 148.708 28.9474H284.839C285.047 28.9474 285.246 29.041 285.394 29.2077C285.541 29.3744 285.624 29.6005 285.624 29.8363V125.471C285.624 127.654 284.858 129.748 283.494 131.292C282.131 132.836 280.282 133.703 278.354 133.703ZM149.493 30.7252V125.413C149.493 127.127 150.093 128.77 151.161 129.984C152.23 131.197 153.679 131.881 155.193 131.887H278.354C279.87 131.887 281.324 131.204 282.396 129.99C283.468 128.776 284.071 127.13 284.071 125.413V30.7252H149.493Z" fill="#231F20"/>
<path d="M155.193 16.1549H278.354C280.074 16.1549 281.723 16.9286 282.939 18.3057C284.155 19.6828 284.839 21.5505 284.839 23.498V29.8363H148.708V23.498C148.708 21.5505 149.391 19.6828 150.607 18.3057C151.824 16.9286 153.473 16.1549 155.193 16.1549Z" fill="white"/>
<path d="M284.839 30.7252H148.708C148.503 30.7201 148.307 30.6242 148.164 30.4581C148.02 30.2919 147.94 30.0687 147.94 29.8363V23.498C147.944 21.3214 148.71 19.2354 150.069 17.6964C151.428 16.1573 153.271 15.2904 155.193 15.2853H278.354C280.273 15.2955 282.111 16.1646 283.466 17.7032C284.822 19.2417 285.585 21.3247 285.589 23.498V29.8363C285.59 30.0655 285.512 30.2859 285.372 30.4515C285.232 30.6172 285.041 30.7152 284.839 30.7252ZM149.493 28.9474H284.071V23.498C284.066 21.7845 283.462 20.1428 282.39 18.933C281.319 17.7231 279.867 17.0438 278.354 17.0438H155.193C153.682 17.0489 152.235 17.7305 151.167 18.9398C150.099 20.1491 149.497 21.7878 149.493 23.498V28.9474Z" fill="#231F20"/>
<path d="M182.224 68.1173C187.069 68.1173 190.996 63.6703 190.996 58.1847C190.996 52.6992 187.069 48.2522 182.224 48.2522C177.38 48.2522 173.453 52.6992 173.453 58.1847C173.453 63.6703 177.38 68.1173 182.224 68.1173Z" fill="#3883BB"/>
<path d="M166.285 88.2142C166.421 83.5271 168.16 79.0832 171.136 75.8218C174.112 72.5604 178.091 70.7371 182.233 70.7371C186.374 70.7371 190.354 72.5604 193.329 75.8218C196.305 79.0832 198.045 83.5271 198.18 88.2142H166.285Z" fill="#3883BB"/>
<path d="M251.322 68.1173C256.166 68.1173 260.094 63.6703 260.094 58.1847C260.094 52.6992 256.166 48.2522 251.322 48.2522C246.477 48.2522 242.55 52.6992 242.55 58.1847C242.55 63.6703 246.477 68.1173 251.322 68.1173Z" fill="#3883BB"/>
<path d="M235.383 88.2142C235.518 83.5271 237.258 79.0832 240.234 75.8218C243.21 72.5604 247.189 70.7371 251.33 70.7371C255.472 70.7371 259.451 72.5604 262.427 75.8218C265.403 79.0832 267.143 83.5271 267.278 88.2142H235.383Z" fill="#3883BB"/>
<path d="M231.748 59.0736H211.27C211.062 59.0736 210.862 58.9799 210.715 58.8132C210.568 58.6465 210.485 58.4204 210.485 58.1847C210.485 57.9489 210.568 57.7228 210.715 57.5561C210.862 57.3894 211.062 57.2958 211.27 57.2958H229.939L225.861 52.4454C225.789 52.3645 225.731 52.2682 225.692 52.1621C225.653 52.056 225.633 51.9421 225.633 51.827C225.633 51.712 225.653 51.5981 225.692 51.492C225.731 51.3859 225.789 51.2896 225.861 51.2087C226.01 51.0469 226.209 50.9565 226.415 50.9565C226.622 50.9565 226.821 51.0469 226.97 51.2087L232.294 57.5663C232.402 57.688 232.474 57.8437 232.501 58.0127C232.528 58.1818 232.51 58.3562 232.448 58.5132C232.392 58.6733 232.296 58.8115 232.172 58.911C232.047 59.0105 231.9 59.067 231.748 59.0736Z" fill="#231F20"/>
<path d="M226.629 64.7355C226.417 64.7331 226.214 64.6359 226.065 64.465C225.918 64.2983 225.836 64.0724 225.836 63.837C225.836 63.6015 225.918 63.3756 226.065 63.2089L231.185 57.5663C231.336 57.4125 231.534 57.331 231.737 57.3389C231.94 57.3468 232.132 57.4434 232.273 57.6085C232.415 57.7736 232.494 57.9943 232.495 58.2242C232.496 58.4542 232.418 58.6755 232.277 58.8417L227.158 64.4843C227.016 64.6406 226.827 64.7303 226.629 64.7355Z" fill="#231F20"/>
<path d="M222.038 66.5132H201.56C201.408 66.5161 201.259 66.4681 201.132 66.3752C201.004 66.2824 200.904 66.1488 200.843 65.9915C200.782 65.8311 200.764 65.654 200.791 65.4822C200.819 65.3103 200.89 65.1514 200.996 65.0253L206.321 58.687C206.391 58.5983 206.475 58.5264 206.57 58.4755C206.665 58.4246 206.768 58.3956 206.872 58.3904C206.977 58.3852 207.082 58.4037 207.18 58.445C207.278 58.4863 207.368 58.5495 207.445 58.6308C207.521 58.7122 207.582 58.81 207.625 58.9186C207.667 59.0271 207.69 59.1442 207.692 59.2629C207.694 59.3816 207.674 59.4996 207.635 59.6097C207.596 59.7199 207.538 59.8201 207.464 59.9044L203.369 64.7354H222.038C222.245 64.7403 222.442 64.8356 222.588 65.0012C222.735 65.1669 222.819 65.3901 222.823 65.6243C222.823 65.86 222.74 66.0862 222.593 66.2529C222.446 66.4196 222.246 66.5132 222.038 66.5132Z" fill="#231F20"/>
<path d="M206.662 72.156C206.564 72.1577 206.466 72.1362 206.375 72.093C206.284 72.0497 206.201 71.9857 206.133 71.9048L201.014 66.2815C200.871 66.1125 200.791 65.8875 200.791 65.6535C200.791 65.4195 200.871 65.1945 201.014 65.0255C201.161 64.8591 201.36 64.7656 201.568 64.7656C201.776 64.7656 201.976 64.8591 202.123 65.0255L207.243 70.6681C207.315 70.7489 207.372 70.8452 207.411 70.9514C207.45 71.0575 207.471 71.1714 207.471 71.2864C207.471 71.4015 207.45 71.5153 207.411 71.6215C207.372 71.7276 207.315 71.8239 207.243 71.9048C207.165 71.9883 207.074 72.0535 206.975 72.0966C206.875 72.1397 206.769 72.1599 206.662 72.156Z" fill="#231F20"/>
<path d="M257.363 99.9052H176.183C175.957 99.9052 175.74 99.8034 175.58 99.6222C175.42 99.441 175.33 99.1952 175.33 98.939C175.334 98.6843 175.426 98.4414 175.585 98.2613C175.744 98.0811 175.958 97.9777 176.183 97.9728H257.363C257.59 97.9728 257.807 98.0746 257.967 98.2558C258.127 98.437 258.217 98.6827 258.217 98.939C258.217 99.1952 258.127 99.441 257.967 99.6222C257.807 99.8034 257.59 99.9052 257.363 99.9052Z" fill="#D1D3D4"/>
<path d="M257.363 106.437H176.183C175.957 106.437 175.74 106.335 175.58 106.154C175.42 105.972 175.33 105.727 175.33 105.47C175.334 105.216 175.426 104.973 175.585 104.793C175.744 104.613 175.958 104.509 176.183 104.504H257.363C257.59 104.504 257.807 104.606 257.967 104.787C258.127 104.968 258.217 105.214 258.217 105.47C258.217 105.727 258.127 105.972 257.967 106.154C257.807 106.335 257.59 106.437 257.363 106.437Z" fill="#D1D3D4"/>
<path d="M249.018 113.046H176.183C175.957 113.046 175.74 112.944 175.58 112.763C175.42 112.581 175.33 112.336 175.33 112.079C175.334 111.825 175.426 111.582 175.585 111.402C175.744 111.222 175.958 111.118 176.183 111.113H249.018C249.243 111.118 249.458 111.222 249.617 111.402C249.776 111.582 249.867 111.825 249.872 112.079C249.872 112.336 249.782 112.581 249.622 112.763C249.462 112.944 249.245 113.046 249.018 113.046Z" fill="#D1D3D4"/>
<path d="M158.282 25.3531C159.432 25.3531 160.364 24.2976 160.364 22.9956C160.364 21.6936 159.432 20.6381 158.282 20.6381C157.132 20.6381 156.2 21.6936 156.2 22.9956C156.2 24.2976 157.132 25.3531 158.282 25.3531Z" fill="#3883BB"/>
<path d="M165.62 25.3531C166.77 25.3531 167.702 24.2976 167.702 22.9956C167.702 21.6936 166.77 20.6381 165.62 20.6381C164.47 20.6381 163.538 21.6936 163.538 22.9956C163.538 24.2976 164.47 25.3531 165.62 25.3531Z" fill="#D1D3D4"/>
<path d="M172.958 25.3531C174.108 25.3531 175.04 24.2976 175.04 22.9956C175.04 21.6936 174.108 20.6381 172.958 20.6381C171.808 20.6381 170.876 21.6936 170.876 22.9956C170.876 24.2976 171.808 25.3531 172.958 25.3531Z" fill="#D1D3D4"/>
<path d="M305.915 21.0051H481.586V255.753C481.586 258.316 480.687 260.774 479.087 262.586C477.486 264.398 475.316 265.416 473.053 265.416H314.43C312.167 265.416 309.997 264.398 308.397 262.586C306.796 260.774 305.897 258.316 305.897 255.753V21.0051H305.915Z" fill="white"/>
<path d="M473.053 266.382H314.345C311.859 266.377 309.476 265.255 307.719 263.262C305.963 261.269 304.976 258.569 304.976 255.753V21.0051C304.976 20.7489 305.066 20.5031 305.226 20.3219C305.386 20.1407 305.603 20.0389 305.829 20.0389H481.586C481.812 20.0389 482.029 20.1407 482.189 20.3219C482.349 20.5031 482.439 20.7489 482.439 21.0051V255.753C482.435 258.571 481.444 261.271 479.685 263.263C477.926 265.255 475.541 266.377 473.053 266.382ZM306.768 21.9713V255.792C306.768 258.095 307.575 260.304 309.011 261.934C310.448 263.564 312.397 264.483 314.43 264.488H473.138C475.174 264.483 477.124 263.565 478.564 261.935C480.003 260.306 480.813 258.097 480.818 255.792V21.9713H306.768Z" fill="#231F20"/>
<path d="M445.765 246.072H341.666C339.478 246.052 337.384 245.061 335.833 243.313C334.283 241.564 333.399 239.197 333.373 236.719V231.115C333.377 228.611 334.258 226.21 335.822 224.439C337.386 222.668 339.506 221.671 341.718 221.666H445.816C448.03 221.666 450.152 222.661 451.717 224.434C453.282 226.206 454.161 228.609 454.161 231.115V236.719C454.139 239.219 453.243 241.606 451.669 243.359C450.095 245.112 447.973 246.088 445.765 246.072ZM341.666 223.598C339.915 223.614 338.239 224.412 337.005 225.82C335.771 227.228 335.079 229.132 335.079 231.115V236.719C335.084 238.71 335.785 240.617 337.029 242.022C338.274 243.428 339.96 244.217 341.718 244.217H445.816C447.574 244.217 449.26 243.428 450.505 242.022C451.749 240.617 452.45 238.71 452.455 236.719V231.115C452.455 229.122 451.756 227.21 450.511 225.8C449.266 224.39 447.577 223.598 445.816 223.598H341.666Z" fill="#231F20"/>
<path d="M344.96 85.335H331.035V198.98H344.96V85.335Z" fill="#3883BB"/>
<path d="M370.66 111.944H356.735V198.96H370.66V111.944Z" fill="#3883BB"/>
<path d="M396.344 94.6105H382.418V198.98H396.344V94.6105Z" fill="#3883BB"/>
<path d="M422.045 126.051H408.119V198.96H422.045V126.051Z" fill="#3883BB"/>
<path d="M447.745 94.6105H433.82V198.98H447.745V94.6105Z" fill="#3883BB"/>
<path d="M447.421 41.5468H423.819C423.593 41.5468 423.376 41.445 423.216 41.2638C423.056 41.0826 422.966 40.8368 422.966 40.5806C422.966 40.3243 423.056 40.0786 423.216 39.8974C423.376 39.7162 423.593 39.6144 423.819 39.6144H447.386C447.611 39.6193 447.826 39.7227 447.985 39.9028C448.144 40.083 448.235 40.3259 448.24 40.5806C448.24 40.8303 448.155 41.0704 448.002 41.2505C447.849 41.4306 447.641 41.5368 447.421 41.5468Z" fill="#231F20"/>
<path d="M439.178 51.4986H423.819C423.593 51.4986 423.376 51.3968 423.216 51.2156C423.056 51.0344 422.966 50.7886 422.966 50.5324C422.966 50.2761 423.056 50.0304 423.216 49.8492C423.376 49.668 423.593 49.5662 423.819 49.5662H439.178C439.404 49.5662 439.621 49.668 439.781 49.8492C439.941 50.0304 440.031 50.2761 440.031 50.5324C440.031 50.7886 439.941 51.0344 439.781 51.2156C439.621 51.3968 439.404 51.4986 439.178 51.4986Z" fill="#231F20"/>
<path d="M416.805 95.7892C409.364 95.7892 402.88 86.3977 397.658 78.8227C394.244 73.9144 391.053 69.1607 388.92 69.1607C386.497 69.1607 383.152 71.4216 379.619 73.7405C374.807 76.8903 369.38 80.4652 364.261 80.1367C354.687 79.557 336.7 55.6339 335.949 54.6097C335.878 54.5189 335.825 54.4131 335.791 54.2984C335.757 54.1838 335.743 54.0626 335.751 53.942C335.759 53.8214 335.788 53.7038 335.837 53.5962C335.886 53.4885 335.953 53.3929 336.034 53.315C336.19 53.1449 336.398 53.0499 336.615 53.0499C336.831 53.0499 337.039 53.1449 337.195 53.315C337.365 53.5662 355.472 77.6633 364.346 78.2043C369.022 78.5135 374.244 75.0738 378.851 72.04C382.572 69.6051 386.087 67.3056 388.92 67.2089C391.753 67.1123 395.047 71.6921 399.04 77.5087C404.159 84.9098 410.474 94.108 417.317 93.7408C423.239 93.4123 426.071 87.5765 429.075 81.3928C432.078 75.2091 434.928 69.2959 440.918 68.0012C441.121 67.983 441.322 68.0506 441.483 68.191C441.644 68.3313 441.753 68.5344 441.789 68.7608C441.825 68.9872 441.786 69.2207 441.679 69.416C441.571 69.6113 441.404 69.7545 441.208 69.8177C435.986 70.9385 433.324 76.4458 430.491 82.2817C427.42 88.6393 424.228 95.2095 417.402 95.596L416.805 95.7892Z" fill="#D1D3D4"/>
<path d="M459.656 199.888H319.72C319.613 199.888 319.508 199.864 319.409 199.817C319.311 199.77 319.222 199.701 319.147 199.615C319.072 199.529 319.014 199.426 318.974 199.314C318.935 199.201 318.916 199.081 318.918 198.96C318.927 198.724 319.015 198.501 319.164 198.336C319.313 198.171 319.512 198.076 319.72 198.071H459.656C459.874 198.071 460.082 198.169 460.236 198.343C460.389 198.517 460.476 198.753 460.476 198.999C460.473 199.118 460.45 199.236 460.408 199.345C460.366 199.454 460.305 199.553 460.229 199.636C460.153 199.718 460.063 199.783 459.965 199.826C459.867 199.869 459.762 199.89 459.656 199.888Z" fill="#D1D3D4"/>
<path d="M336.786 57.5662C336.165 57.5662 335.558 57.3577 335.042 56.967C334.525 56.5763 334.123 56.021 333.885 55.3713C333.647 54.7216 333.585 54.0066 333.706 53.3169C333.827 52.6272 334.127 51.9936 334.566 51.4964C335.005 50.9991 335.564 50.6605 336.173 50.5233C336.783 50.3861 337.414 50.4565 337.988 50.7256C338.561 50.9947 339.052 51.4505 339.397 52.0352C339.742 52.6199 339.926 53.3073 339.926 54.0106C339.926 54.9536 339.595 55.858 339.006 56.5248C338.418 57.1916 337.619 57.5662 336.786 57.5662ZM336.786 52.3101C336.485 52.3101 336.191 52.4115 335.94 52.6013C335.69 52.7912 335.496 53.0609 335.381 53.3763C335.267 53.6917 335.238 54.0385 335.298 54.3726C335.358 54.7067 335.504 55.0131 335.718 55.2529C335.932 55.4926 336.205 55.6549 336.5 55.719C336.796 55.7832 337.102 55.7464 337.379 55.6132C337.656 55.4801 337.892 55.2566 338.057 54.9713C338.222 54.6859 338.308 54.3515 338.305 54.0106C338.305 53.7856 338.265 53.5629 338.189 53.3553C338.112 53.1477 338 52.9594 337.859 52.8012C337.718 52.6431 337.55 52.5182 337.366 52.4339C337.182 52.3496 336.985 52.3075 336.786 52.3101Z" fill="#D1D3D4"/>
<path d="M440.884 72.6583C440.264 72.6545 439.659 72.4427 439.144 72.0497C438.63 71.6567 438.23 71.1001 437.995 70.45C437.76 69.8 437.701 69.0857 437.824 68.3973C437.947 67.7088 438.247 67.0771 438.687 66.5817C439.127 66.0864 439.686 65.7497 440.295 65.614C440.904 65.4784 441.534 65.5499 442.107 65.8196C442.68 66.0893 443.169 66.545 443.513 67.1293C443.858 67.7136 444.041 68.4003 444.041 69.1027C444.037 70.0475 443.702 70.9518 443.111 71.6181C442.519 72.2843 441.719 72.6583 440.884 72.6583ZM440.884 67.3829C440.584 67.3829 440.29 67.4837 440.04 67.6727C439.791 67.8617 439.596 68.1303 439.481 68.4445C439.366 68.7588 439.336 69.1046 439.395 69.4382C439.453 69.7718 439.598 70.0783 439.81 70.3188C440.023 70.5593 440.293 70.7231 440.588 70.7895C440.882 70.8558 441.188 70.8218 441.465 70.6916C441.743 70.5614 441.98 70.341 442.147 70.0582C442.314 69.7753 442.403 69.4428 442.403 69.1027C442.403 68.6466 442.243 68.2091 441.958 67.8866C441.673 67.564 441.287 67.3829 440.884 67.3829Z" fill="#D1D3D4"/>
<path d="M314.431 0.966187H473.054C475.317 0.966187 477.487 1.98415 479.087 3.79613C480.687 5.60811 481.586 8.06568 481.586 10.6282V20.9666H305.915V10.6282C305.915 8.06902 306.812 5.61438 308.408 3.80295C310.005 1.99153 312.171 0.971305 314.431 0.966187Z" fill="white"/>
<path d="M481.586 21.9714H305.915C305.688 21.9714 305.471 21.8696 305.311 21.6884C305.151 21.5072 305.062 21.2615 305.062 21.0052V10.6282C305.062 7.81278 306.048 5.11238 307.805 3.11976C309.561 1.12714 311.944 0.00511897 314.43 0H473.139C475.627 0.00510828 478.011 1.12651 479.77 3.11858C481.53 5.11065 482.52 7.81101 482.525 10.6282V20.9666C482.53 21.1052 482.509 21.2436 482.463 21.3723C482.417 21.5009 482.347 21.6169 482.258 21.7123C482.169 21.8076 482.063 21.8801 481.947 21.9248C481.831 21.9695 481.708 21.9854 481.586 21.9714ZM306.768 20.039H480.733V10.6282C480.728 8.32351 479.918 6.11466 478.478 4.48499C477.039 2.85531 475.089 1.93751 473.053 1.9324H314.345C312.311 1.93752 310.362 2.85594 308.926 4.48617C307.489 6.11639 306.683 8.32529 306.683 10.6282L306.768 20.039Z" fill="#231F20"/>
<path d="M124.646 120.447H7.11627C3.65731 120.447 0.853271 123.622 0.853271 127.539V294.305C0.853271 298.222 3.65731 301.397 7.11627 301.397H124.646C128.105 301.397 130.909 298.222 130.909 294.305V127.539C130.909 123.622 128.105 120.447 124.646 120.447Z" fill="white"/>
<path d="M124.646 302.421H7.11627C5.22892 302.421 3.41886 301.572 2.0843 300.061C0.749745 298.55 0 296.5 0 294.363V127.539C0.00450651 125.403 0.755701 123.356 2.08928 121.846C3.42287 120.336 5.2303 119.486 7.11627 119.48H124.646C126.532 119.486 128.339 120.336 129.673 121.846C131.006 123.356 131.757 125.403 131.762 127.539V294.305C131.769 295.368 131.59 296.422 131.235 297.406C130.88 298.391 130.357 299.286 129.696 300.04C129.034 300.795 128.248 301.394 127.381 301.802C126.514 302.211 125.585 302.421 124.646 302.421ZM7.11627 121.413C5.6829 121.418 4.30953 122.065 3.29599 123.213C2.28244 124.36 1.71104 125.916 1.70654 127.539V294.305C1.69978 295.114 1.83471 295.917 2.10354 296.667C2.37238 297.417 2.76978 298.099 3.2728 298.674C3.77581 299.249 4.37446 299.705 5.03416 300.017C5.69385 300.328 6.40152 300.489 7.11627 300.489H124.646C126.08 300.489 127.456 299.843 128.471 298.694C129.485 297.546 130.055 295.988 130.055 294.363V127.539C130.051 125.916 129.48 124.36 128.466 123.213C127.452 122.065 126.079 121.418 124.646 121.413H7.11627Z" fill="#231F20"/>
<path d="M98.1262 263.174H28.0386C27.8123 263.174 27.5952 263.072 27.4352 262.891C27.2752 262.71 27.1853 262.464 27.1853 262.208C27.1897 261.953 27.281 261.71 27.44 261.53C27.5991 261.35 27.8136 261.247 28.0386 261.242H98.1262C98.3525 261.242 98.5695 261.343 98.7295 261.525C98.8895 261.706 98.9794 261.952 98.9794 262.208C98.9794 262.464 98.8895 262.71 98.7295 262.891C98.5695 263.072 98.3525 263.174 98.1262 263.174Z" fill="#D1D3D4"/>
<path d="M64.2855 276.14H28.0386C27.8136 276.135 27.5991 276.032 27.44 275.852C27.281 275.672 27.1897 275.429 27.1853 275.174C27.1853 274.918 27.2752 274.672 27.4352 274.491C27.5952 274.31 27.8123 274.208 28.0386 274.208H64.2855C64.5118 274.208 64.7288 274.31 64.8888 274.491C65.0488 274.672 65.1387 274.918 65.1387 275.174C65.1344 275.429 65.0431 275.672 64.884 275.852C64.7249 276.032 64.5104 276.135 64.2855 276.14Z" fill="#D1D3D4"/>
<path d="M32.373 161.182C42.6123 172.776 52.8117 184.332 62.9713 195.849C63.1268 196.041 63.3172 196.192 63.5294 196.292C63.7415 196.392 63.9703 196.439 64.2 196.429H111.079C110.822 204.628 108.828 212.638 105.266 219.782C101.703 226.927 96.6766 232.997 90.609 237.481C84.5413 241.966 77.6107 244.733 70.401 245.55C63.1913 246.366 55.9139 245.209 49.182 242.174C42.45 239.14 36.4609 234.318 31.7191 228.114C26.9774 221.91 23.622 214.507 21.9358 206.527C20.2496 198.548 20.2819 190.227 22.03 182.264C23.7781 174.302 27.1908 166.932 31.9805 160.776L32.373 161.182Z" fill="#3883BB"/>
<path d="M67.5107 143.346V192.777H67.9544L110.208 192.661C111.147 192.661 111.147 192.661 111.079 191.598C110.546 182.197 107.752 173.139 102.999 165.407C98.2463 157.675 91.716 151.563 84.1154 147.732C79.4759 145.437 74.5352 144.021 69.4903 143.539L67.5107 143.346Z" fill="#D1D3D4"/>
<path d="M64.2855 192.119V143.384C59.2099 143.682 54.2064 144.876 49.4557 146.921C43.7728 149.466 38.5885 153.255 34.1992 158.071L64.2855 192.119Z" fill="#D1D3D4"/>
<path d="M199.751 165.8C189.699 162.38 184.392 149.066 181.712 138.476C178.709 126.437 175.176 116.582 179.46 104.041C180.433 101.161 182.003 98.2434 184.579 97.3159C185.223 97.2109 185.842 96.9683 186.405 96.6009C186.853 96.0998 187.187 95.4831 187.378 94.8037C193.488 78.4942 210.775 78.0498 223.745 80.3494C231.253 81.6827 240.998 85.5668 243.336 94.3013C247.619 110.398 244.001 127.906 236.117 141.819C228.745 154.901 214.802 171.018 199.751 165.8Z" fill="white"/>
<path d="M205.502 167.733C203.472 167.738 201.453 167.4 199.512 166.728C189.017 163.153 183.59 149.549 180.893 138.747C180.552 137.375 180.211 136.022 179.852 134.688C177.122 124.196 174.733 115.113 178.658 103.77C180.04 99.6927 181.986 97.2385 184.392 96.4656L184.904 96.3303C185.32 96.3343 185.724 96.1655 186.038 95.8558C186.353 95.5461 186.556 95.1169 186.61 94.6491C192.976 77.7212 210.502 77.0642 223.949 79.4797C229.069 80.388 241.459 83.6537 244.24 94.108C248.302 109.413 245.64 126.959 236.919 142.418C229.53 155.307 217.891 167.733 205.502 167.733ZM213.079 80.3107C202.839 80.3107 192.6 83.5958 188.214 95.1708C187.986 96.0105 187.561 96.7649 186.986 97.3545C186.478 97.7589 185.893 98.0235 185.279 98.1274L184.853 98.2627C182.992 98.8424 181.44 100.91 180.245 104.388C176.559 115.191 178.846 123.983 181.491 134.147C181.849 135.481 182.19 136.833 182.549 138.225C185.126 148.544 190.245 161.568 200.007 164.892C213.659 169.51 227.311 155.732 235.451 141.297C243.899 126.379 246.493 109.355 242.568 94.5718C240.059 85.1803 228.506 82.1658 223.659 81.3155C220.161 80.6723 216.623 80.3364 213.079 80.3107Z" fill="#231F20"/>
<path d="M245.417 133.22C245.417 133.22 256.186 148.467 254.496 152.041C252.807 155.616 246.117 153.974 246.117 153.974" fill="white"/>
<path d="M249.309 155.385C248.162 155.386 247.019 155.256 245.895 154.998C245.669 154.947 245.47 154.796 245.342 154.578C245.214 154.361 245.168 154.095 245.213 153.839C245.258 153.582 245.391 153.357 245.583 153.212C245.775 153.067 246.01 153.014 246.237 153.066C247.943 153.452 252.568 153.955 253.694 151.558C254.582 149.626 249.701 140.872 244.701 133.78C244.558 133.579 244.491 133.323 244.513 133.067C244.536 132.81 244.646 132.574 244.82 132.408C245.002 132.254 245.228 132.184 245.453 132.213C245.679 132.241 245.886 132.367 246.032 132.563C248.643 136.273 257.022 148.621 255.196 152.467C254.138 154.843 251.459 155.385 249.309 155.385Z" fill="#231F20"/>
<path d="M241.663 111.963C248.148 116.91 247.346 128.891 247.909 136.563C248.694 147.346 249.263 158.154 249.615 168.989C249.837 175.849 234.256 177.607 231.304 175.849L235.912 202.612L201.969 191.714L200.518 160.428C200.518 160.428 210.757 159.443 215.877 144.969C220.997 130.495 218.898 109.026 218.898 109.026C218.898 109.026 235.331 107.113 241.663 111.963Z" fill="white"/>
<path d="M235.912 203.579H235.673L201.696 192.68C201.523 192.628 201.37 192.516 201.257 192.36C201.143 192.204 201.076 192.012 201.064 191.81L199.614 160.505C199.604 160.259 199.678 160.017 199.821 159.83C199.964 159.643 200.164 159.525 200.382 159.501C200.791 159.501 210.262 158.361 214.99 144.582C219.853 130.399 217.976 109.297 217.959 109.084C217.945 108.828 218.011 108.575 218.147 108.369C218.218 108.271 218.306 108.189 218.406 108.13C218.506 108.07 218.615 108.033 218.727 108.021C219.41 108.021 235.639 106.224 242.141 111.191C247.892 115.596 248.25 124.872 248.54 132.447C248.54 133.916 248.66 135.326 248.762 136.621C249.547 147.404 250.127 158.322 250.469 169.085C250.461 170.177 250.182 171.244 249.662 172.163C249.143 173.083 248.405 173.818 247.533 174.284C243.557 177.105 236.048 178.052 232.396 177.356L236.748 202.477C236.775 202.641 236.766 202.809 236.721 202.968C236.676 203.126 236.598 203.27 236.492 203.385C236.323 203.521 236.119 203.589 235.912 203.579ZM202.737 190.979L234.803 201.26L230.468 176.042C230.431 175.863 230.442 175.675 230.5 175.503C230.558 175.331 230.66 175.182 230.792 175.076C230.928 174.982 231.085 174.932 231.244 174.932C231.404 174.932 231.56 174.982 231.697 175.076C233.591 176.216 242.362 175.617 246.629 172.602C248.096 171.559 248.813 170.38 248.762 169.105C248.421 158.36 247.84 147.462 247.055 136.718C246.953 135.404 246.902 133.974 246.834 132.466C246.561 125.432 246.219 116.679 241.185 112.833C236.065 108.852 223.147 109.625 219.734 109.896C220.058 114.321 221.048 132.312 216.577 145.317C212.106 158.322 203.999 160.776 201.354 161.336L202.737 190.979Z" fill="#231F20"/>
<path d="M248.745 160.969C248.745 160.969 239.393 160.969 237.158 146.669Z" fill="white"/>
<path d="M248.745 161.935C248.643 161.935 238.642 161.761 236.304 146.843C236.269 146.59 236.323 146.331 236.454 146.122C236.584 145.913 236.782 145.77 237.004 145.722C237.226 145.677 237.454 145.733 237.64 145.878C237.825 146.023 237.952 146.245 237.994 146.495C240.059 159.79 248.404 160.022 248.745 160.022C248.971 160.022 249.188 160.124 249.348 160.305C249.508 160.486 249.598 160.732 249.598 160.988C249.594 161.241 249.502 161.482 249.342 161.659C249.183 161.836 248.968 161.935 248.745 161.935Z" fill="#231F20"/>
<path d="M227.703 142.032C227.217 139.366 226.089 136.905 224.444 134.92C223.365 133.198 222.065 131.668 220.587 130.379C219.846 129.739 218.988 129.294 218.076 129.076C217.164 128.859 216.22 128.875 215.314 129.123C214.546 129.44 213.846 129.935 213.258 130.578C212.67 131.22 212.208 131.995 211.901 132.853C211.288 134.588 211.025 136.456 211.133 138.321C211.294 142.399 212.403 146.357 214.348 149.794C216.292 153.231 219.004 156.026 222.208 157.897L221.645 157.298" fill="white"/>
<path d="M222.157 158.824C222.026 158.822 221.896 158.782 221.782 158.708C218.451 156.749 215.632 153.836 213.605 150.259C211.578 146.682 210.414 142.566 210.229 138.322C210.124 136.343 210.41 134.362 211.065 132.524C211.427 131.531 211.973 130.637 212.664 129.9C213.356 129.164 214.177 128.603 215.075 128.254C216.104 127.96 217.179 127.932 218.219 128.173C219.259 128.414 220.238 128.917 221.082 129.645C222.631 130.98 223.989 132.577 225.11 134.379C226.856 136.504 228.039 139.143 228.523 141.993C228.547 142.247 228.481 142.501 228.341 142.7C228.2 142.899 227.996 143.027 227.772 143.056C227.548 143.083 227.324 143.009 227.148 142.85C226.972 142.69 226.859 142.459 226.833 142.206C226.352 139.715 225.285 137.418 223.744 135.558C222.721 133.921 221.49 132.462 220.092 131.23C219.456 130.674 218.719 130.285 217.934 130.091C217.149 129.897 216.336 129.903 215.553 130.109C214.892 130.379 214.288 130.804 213.782 131.357C213.276 131.91 212.88 132.578 212.618 133.317C212.053 134.917 211.814 136.641 211.918 138.36C212.081 142.021 213.035 145.58 214.695 148.727C216.355 151.874 218.671 154.511 221.441 156.409C221.565 156.381 221.694 156.387 221.816 156.427C221.938 156.468 222.049 156.541 222.14 156.641L222.721 157.22C222.855 157.35 222.95 157.524 222.994 157.718C223.037 157.912 223.026 158.117 222.962 158.303C222.899 158.49 222.785 158.65 222.638 158.76C222.491 158.871 222.317 158.927 222.14 158.921L222.157 158.824Z" fill="#231F20"/>
<path d="M231.304 175.849C231.304 175.849 222.959 173.916 218.693 167.926C218.693 167.926 220.195 182.226 232.994 185.704L231.304 175.849Z" fill="#231F20"/>
<path d="M232.994 186.67H232.789C219.564 183.095 217.857 168.235 217.84 168.08C217.818 167.873 217.856 167.662 217.948 167.481C218.04 167.3 218.182 167.158 218.352 167.076C218.52 166.991 218.709 166.972 218.888 167.021C219.067 167.069 219.226 167.184 219.342 167.346C223.386 172.931 231.39 174.921 231.475 174.94C231.642 174.98 231.794 175.074 231.912 175.212C232.031 175.35 232.111 175.524 232.141 175.713L233.848 185.549C233.873 185.69 233.87 185.835 233.84 185.974C233.81 186.113 233.752 186.243 233.672 186.354C233.592 186.465 233.491 186.554 233.377 186.616C233.263 186.677 233.138 186.709 233.011 186.709L232.994 186.67ZM220.195 170.979C221.026 174.126 222.528 176.992 224.57 179.325C226.612 181.657 229.13 183.383 231.902 184.351L230.571 176.622C226.808 175.584 223.276 173.676 220.195 171.018V170.979Z" fill="#231F20"/>
<path d="M240.744 126.435C240.89 124.307 240.406 122.529 239.663 122.464C238.921 122.4 238.201 124.072 238.056 126.2C237.911 128.328 238.395 130.106 239.137 130.171C239.879 130.236 240.599 128.564 240.744 126.435Z" fill="#231F20"/>
<path d="M150.585 255.734L133.076 290.517L87.4771 237.531C87.4771 237.531 91.1633 215.019 86.2484 216.816C83.1431 218.068 80.4432 220.351 78.5007 223.366C78.5007 223.366 74.4562 192.448 63.8074 202.612C53.1586 212.777 58.0564 230.632 66.1283 247.792C72.1183 260.527 125.345 353.417 140.107 349.688C154.868 345.958 189.921 261.589 189.921 261.589L150.585 255.734Z" fill="white"/>
<path d="M139.288 350.731C122.512 350.731 70.7189 259.599 65.3774 248.314C58.6536 233.995 51.1107 213.53 63.2613 201.936C65.5139 199.772 67.6983 199.115 69.7632 200.004C75.3607 202.4 78.1253 215.869 79.0127 221.26C80.905 218.871 83.3088 217.074 85.9924 216.043C86.3546 215.882 86.749 215.839 87.1317 215.917C87.5144 215.996 87.8703 216.193 88.1597 216.487C91.0096 219.328 89.013 233.415 88.3986 237.357L132.888 288.894L149.851 255.212C149.935 255.045 150.061 254.909 150.213 254.823C150.365 254.737 150.536 254.704 150.704 254.729L189.955 260.527C190.088 260.545 190.216 260.601 190.326 260.688C190.436 260.776 190.526 260.893 190.586 261.029C190.645 261.164 190.675 261.313 190.675 261.464C190.675 261.614 190.645 261.763 190.586 261.899C189.136 265.358 155.158 346.75 140.175 350.519C139.886 350.621 139.589 350.692 139.288 350.731ZM67.9372 201.492C66.578 201.634 65.3077 202.319 64.3535 203.424C55.8208 211.617 56.6229 225.608 66.8962 247.425C73.3981 261.261 126.216 352.258 139.919 348.837C153.162 345.494 184.289 272.739 188.658 262.459L151.114 256.855L133.878 291.078C133.812 291.207 133.721 291.318 133.611 291.402C133.502 291.485 133.377 291.54 133.246 291.561C133.115 291.582 132.981 291.566 132.857 291.516C132.732 291.465 132.62 291.381 132.53 291.271L86.931 238.285C86.8379 238.172 86.7694 238.037 86.7309 237.889C86.6923 237.742 86.6849 237.586 86.7092 237.434C87.8696 230.304 88.7741 219.54 87.1017 217.878C87.1017 217.878 86.9139 217.704 86.5726 217.878C83.6554 219.075 81.1147 221.219 79.2686 224.043C79.1692 224.203 79.0306 224.326 78.8699 224.398C78.7092 224.471 78.5335 224.488 78.3642 224.449C78.1987 224.405 78.0486 224.306 77.933 224.165C77.8175 224.023 77.7418 223.846 77.7157 223.656C77.016 218.304 74.149 203.984 69.183 201.897C68.7944 201.673 68.3716 201.536 67.9372 201.492Z" fill="#231F20"/>
<path d="M283.968 240.14C283.968 240.14 319.259 229.782 332.485 220.99C346.991 211.328 374.312 150.302 383.186 135.133C388.003 126.756 391.583 117.547 393.784 107.867C394.808 103.538 395.286 100.408 393.375 96.2724C392.982 95.4028 386.719 87.6345 386.429 88.5427C388.135 83.1127 389.842 77.9532 391.651 72.5811C392.129 71.0931 392.487 69.2187 391.48 68.1366C391.039 67.7464 390.496 67.5344 389.936 67.5344C389.376 67.5344 388.832 67.7464 388.391 68.1366C387.501 68.9089 386.778 69.9 386.275 71.0352L371.77 99.5188C371.886 96.0017 371.26 92.5039 369.944 89.3157C369.736 88.6758 369.361 88.1229 368.869 87.7311C367.282 86.7263 365.746 89.1804 365.251 91.1515C362.674 101.432 364.534 113.819 358.971 122.92C354.738 129.838 317.143 180.892 317.143 180.892L283.968 190.554" fill="white"/>
<path d="M283.968 241.106C283.742 241.139 283.513 241.069 283.333 240.912C283.152 240.754 283.034 240.522 283.004 240.265C282.975 240.009 283.037 239.75 283.176 239.545C283.315 239.341 283.52 239.207 283.747 239.173C284.105 239.077 319.089 228.777 332.059 220.139C342.554 213.144 360.387 177.762 372.197 154.341C376.463 145.896 380.132 138.592 382.436 134.592C387.195 126.276 390.728 117.138 392.897 107.538C393.87 103.48 394.382 100.524 392.556 96.5621C390.73 93.9709 388.697 91.5773 386.48 89.4122C386.356 89.4409 386.229 89.4409 386.105 89.4122C385.892 89.3247 385.717 89.1465 385.619 88.9155C385.52 88.6845 385.504 88.4191 385.576 88.1755C386.617 84.6972 387.777 81.2768 388.887 77.9531C389.535 76.0207 390.166 74.0883 390.798 72.1559C391.429 70.2235 391.378 69.3153 390.798 68.7549C390.504 68.5085 390.148 68.3756 389.782 68.3756C389.417 68.3756 389.061 68.5085 388.767 68.7549C388.002 69.4716 387.385 70.3684 386.958 71.3829L372.401 99.9245C372.308 100.113 372.161 100.26 371.984 100.341C371.807 100.422 371.611 100.432 371.429 100.369C371.281 100.296 371.155 100.178 371.064 100.027C370.974 99.877 370.923 99.7007 370.917 99.5187C371.016 96.1919 370.432 92.8844 369.21 89.8567C369.066 89.4056 368.811 89.0102 368.476 88.7166C368.383 88.6555 368.277 88.6234 368.169 88.6234C368.061 88.6234 367.955 88.6555 367.862 88.7166C366.989 89.3947 366.379 90.4247 366.155 91.5959C365.278 95.5251 364.706 99.5342 364.449 103.577C363.886 110.533 363.288 117.741 359.671 123.635C355.472 130.534 319.328 179.52 317.792 181.607C317.678 181.762 317.522 181.871 317.348 181.916L284.173 191.578C283.954 191.638 283.723 191.598 283.529 191.469C283.335 191.339 283.192 191.129 283.132 190.883C283.104 190.76 283.098 190.631 283.113 190.506C283.129 190.38 283.166 190.258 283.223 190.149C283.28 190.039 283.356 189.944 283.446 189.867C283.536 189.791 283.638 189.735 283.747 189.704L316.666 180.042C319.447 176.177 354.21 129.027 358.271 122.456C361.684 116.968 362.196 110.012 362.759 103.306C362.997 99.1402 363.568 95.0073 364.466 90.9582C364.646 90.0911 364.983 89.2758 365.456 88.564C365.929 87.8521 366.528 87.2592 367.213 86.8228C367.55 86.6611 367.915 86.5909 368.279 86.6177C368.644 86.6446 368.998 86.7678 369.312 86.9774C369.968 87.4218 370.473 88.1022 370.746 88.9098C371.688 91.1919 372.293 93.6333 372.538 96.137L385.576 70.5327C386.146 69.2551 386.97 68.1441 387.982 67.2862C388.59 66.7824 389.328 66.5206 390.081 66.5416C390.835 66.5625 391.561 66.8651 392.146 67.4022C393.204 68.5423 393.341 70.3974 392.521 72.8902C391.89 74.8226 391.242 76.755 390.593 78.6874C389.586 81.702 388.545 84.8131 387.572 87.9629C390.033 90.2448 392.255 92.8382 394.194 95.6926C396.293 100.253 395.713 103.693 394.672 108.06C392.443 117.833 388.829 127.133 383.972 135.597C381.651 139.558 377.999 146.824 373.732 155.23C361.121 180.235 343.868 214.497 332.963 221.743C319.806 230.516 285.675 240.565 284.224 241.067L283.968 241.106Z" fill="#231F20"/>
<path d="M292.416 406.771L281.374 349.92L171.251 383.37C171.251 383.37 171.473 392.703 171.78 406.732L292.416 406.771Z" fill="#231F20"/>
<path d="M314.6 176.815C314.6 176.815 189.306 173.82 173.401 199.289C161.023 220.425 150.658 242.986 142.479 266.594L165.005 290.44C164.905 324.164 166.421 357.87 169.544 391.408C208.368 399.138 288.797 363.968 288.115 363.62L277.875 245.744L325.829 228.97L314.6 176.815Z" fill="#3883BB"/>
<path d="M163.538 281.59C163.426 281.585 163.316 281.555 163.214 281.502C163.112 281.448 163.021 281.373 162.945 281.28C162.868 281.186 162.809 281.077 162.771 280.958C162.732 280.838 162.714 280.712 162.719 280.585C162.719 278.459 164.204 228.159 170.296 210.574C170.335 210.454 170.396 210.345 170.474 210.252C170.551 210.16 170.645 210.086 170.749 210.035C170.852 209.985 170.964 209.958 171.077 209.958C171.19 209.958 171.301 209.983 171.405 210.033C171.51 210.075 171.607 210.142 171.688 210.228C171.77 210.314 171.835 210.419 171.88 210.534C171.925 210.65 171.948 210.775 171.949 210.902C171.949 211.028 171.927 211.153 171.883 211.27C165.91 228.545 164.443 280.14 164.426 280.643C164.417 280.901 164.319 281.145 164.153 281.322C163.987 281.499 163.766 281.595 163.538 281.59Z" fill="#231F20"/>
<path d="M260.725 251.773C260.54 251.776 260.359 251.709 260.21 251.584C260.062 251.458 259.955 251.279 259.906 251.077C259.848 250.829 259.878 250.564 259.989 250.34C260.101 250.117 260.285 249.951 260.503 249.879L295.914 238.478C296.14 238.406 296.382 238.439 296.587 238.57C296.792 238.7 296.943 238.917 297.006 239.174C297.069 239.43 297.04 239.704 296.925 239.936C296.81 240.168 296.618 240.338 296.392 240.41L260.964 251.811C260.883 251.818 260.801 251.804 260.725 251.773Z" fill="#231F20"/>
<path d="M399.16 387.138H337.229C336.371 387.14 335.52 386.951 334.726 386.58C333.932 386.209 333.21 385.663 332.603 384.976C331.995 384.288 331.514 383.471 331.186 382.572C330.859 381.673 330.691 380.709 330.693 379.737V302.267C330.693 301.295 330.862 300.332 331.191 299.434C331.519 298.536 332.001 297.72 332.608 297.033C333.215 296.346 333.935 295.801 334.728 295.429C335.521 295.057 336.371 294.865 337.229 294.865H391.839L405.628 310.093V379.659C405.637 380.631 405.476 381.596 405.156 382.498C404.836 383.399 404.362 384.221 403.762 384.915C403.161 385.61 402.445 386.164 401.656 386.545C400.866 386.926 400.018 387.128 399.16 387.138Z" fill="white"/>
<path d="M399.159 388.104H337.229C335.269 388.104 333.39 387.222 332.004 385.653C330.618 384.084 329.84 381.956 329.84 379.737V302.267C329.844 300.049 330.624 297.924 332.009 296.356C333.394 294.788 335.271 293.904 337.229 293.899H391.838C391.949 293.896 392.059 293.919 392.162 293.965C392.264 294.012 392.357 294.081 392.436 294.17L406.242 309.416C406.401 309.596 406.493 309.838 406.498 310.093V379.659C406.511 381.88 405.746 384.017 404.371 385.6C402.995 387.183 401.121 388.084 399.159 388.104ZM337.229 295.832C335.723 295.837 334.281 296.516 333.216 297.722C332.151 298.928 331.551 300.562 331.546 302.267V379.717C331.546 380.562 331.693 381.399 331.979 382.18C332.265 382.961 332.683 383.67 333.211 384.267C333.739 384.865 334.365 385.339 335.054 385.662C335.744 385.986 336.483 386.152 337.229 386.152H399.159C400.665 386.147 402.108 385.468 403.173 384.262C404.238 383.056 404.838 381.422 404.842 379.717V310.499L391.548 295.832H337.229Z" fill="#231F20"/>
<path d="M316.563 14.493C318.147 14.493 319.43 13.0395 319.43 11.2466C319.43 9.4536 318.147 8.00012 316.563 8.00012C314.98 8.00012 313.696 9.4536 313.696 11.2466C313.696 13.0395 314.98 14.493 316.563 14.493Z" fill="#3883BB"/>
<path d="M326.512 14.493C328.095 14.493 329.379 13.0395 329.379 11.2466C329.379 9.4536 328.095 8.00012 326.512 8.00012C324.929 8.00012 323.645 9.4536 323.645 11.2466C323.645 13.0395 324.929 14.493 326.512 14.493Z" fill="#D1D3D4"/>
<path d="M336.461 14.493C338.045 14.493 339.328 13.0395 339.328 11.2466C339.328 9.4536 338.045 8.00012 336.461 8.00012C334.878 8.00012 333.594 9.4536 333.594 11.2466C333.594 13.0395 334.878 14.493 336.461 14.493Z" fill="#D1D3D4"/>
<path d="M391.395 62.204C391.2 62.2023 391.012 62.1198 390.866 61.9721C390.703 61.8145 390.601 61.5906 390.581 61.3485C390.562 61.1063 390.628 60.8653 390.764 60.6774L398.136 50.7835C398.214 50.6797 398.311 50.5964 398.42 50.5397C398.529 50.4829 398.648 50.454 398.768 50.455H417.215C417.442 50.455 417.659 50.5568 417.819 50.738C417.979 50.9192 418.069 51.1649 418.069 51.4212C418.069 51.6774 417.979 51.9232 417.819 52.1044C417.659 52.2856 417.442 52.3874 417.215 52.3874H399.109L391.976 62.0494C391.806 62.1816 391.599 62.2368 391.395 62.204Z" fill="#D1D3D4"/>
<path d="M391.907 294.865V310.557L405.696 310.093L391.907 294.865Z" fill="#3883BB"/>
<path d="M391.89 311.523C391.673 311.521 391.465 311.424 391.31 311.252C391.223 311.165 391.154 311.057 391.107 310.937C391.06 310.818 391.036 310.688 391.037 310.557V294.865C391.04 294.675 391.091 294.49 391.185 294.332C391.279 294.175 391.411 294.051 391.566 293.976C391.719 293.901 391.888 293.879 392.053 293.913C392.217 293.948 392.368 294.037 392.487 294.17L406.293 309.416C406.409 309.55 406.488 309.719 406.521 309.903C406.553 310.087 406.538 310.278 406.476 310.452C406.415 310.626 406.31 310.776 406.174 310.884C406.039 310.992 405.878 311.053 405.713 311.059L391.924 311.523H391.89ZM392.743 297.165V309.571L403.648 309.204L392.743 297.165Z" fill="#231F20"/>
<path d="M93.4331 335.678H75.9069C73.3339 335.678 71.248 338.04 71.248 340.953V360.799C71.248 363.713 73.3339 366.074 75.9069 366.074H93.4331C96.0061 366.074 98.0919 363.713 98.0919 360.799V340.953C98.0919 338.04 96.0061 335.678 93.4331 335.678Z" fill="#3883BB"/>
<path d="M88.8081 325.938H70.7018C68.289 325.938 66.333 328.153 66.333 330.885V351.388C66.333 354.12 68.289 356.335 70.7018 356.335H88.8081C91.2209 356.335 93.1769 354.12 93.1769 351.388V330.885C93.1769 328.153 91.2209 325.938 88.8081 325.938Z" fill="white"/>
<path d="M88.8086 357.301H70.7022C70.0136 357.306 69.3308 357.157 68.6933 356.862C68.0558 356.567 67.4761 356.133 66.9876 355.583C66.4991 355.033 66.1113 354.38 65.8468 353.66C65.5822 352.94 65.446 352.168 65.446 351.388V330.885C65.446 329.317 65.9962 327.813 66.9755 326.704C67.9549 325.595 69.2831 324.972 70.6681 324.972H88.7744C89.4602 324.972 90.1393 325.125 90.7728 325.422C91.4064 325.719 91.9821 326.155 92.467 326.704C92.9519 327.253 93.3365 327.905 93.599 328.622C93.8614 329.34 93.9965 330.109 93.9965 330.885V351.388C93.9965 352.95 93.451 354.448 92.479 355.556C91.5071 356.664 90.1876 357.291 88.8086 357.301ZM70.7022 326.905C70.2377 326.899 69.7769 326.999 69.3464 327.196C68.9159 327.394 68.5243 327.687 68.1943 328.057C67.8642 328.427 67.6022 328.867 67.4234 329.353C67.2446 329.838 67.1526 330.359 67.1526 330.885V351.388C67.1526 352.444 67.523 353.456 68.1822 354.203C68.8415 354.949 69.7357 355.369 70.6681 355.369H88.7744C89.7068 355.369 90.601 354.949 91.2603 354.203C91.9195 353.456 92.2899 352.444 92.2899 351.388V330.885C92.2899 329.83 91.9195 328.817 91.2603 328.071C90.601 327.324 89.7068 326.905 88.7744 326.905H70.7022Z" fill="#231F20"/>
<path d="M364.5 369.843V365.282C363.033 364.818 361.616 364.49 360.234 363.949C357.567 363.005 355.259 361.071 353.681 358.461C352.382 356.156 351.723 353.464 351.786 350.731H359.654C359.705 352.281 360.206 353.768 361.079 354.963C361.952 356.157 363.149 356.993 364.483 357.34V345.243C362.896 344.721 361.326 344.238 359.756 343.678C358.045 343.12 356.477 342.106 355.182 340.721C353.84 339.199 352.951 337.24 352.64 335.117C352.184 332.538 352.355 329.866 353.135 327.388C353.714 325.603 354.633 323.985 355.828 322.649C357.023 321.313 358.463 320.292 360.046 319.658C361.352 319.192 362.68 318.805 364.022 318.499L364.5 318.383V312.083H371.872V312.682C371.872 314.402 371.872 316.141 371.872 317.861C371.872 318.286 371.992 318.421 372.35 318.518C374.857 319.068 377.203 320.316 379.176 322.151C381.277 324.093 382.668 326.846 383.084 329.881C383.221 330.712 383.272 331.562 383.374 332.431H375.371C375.358 331.195 375.028 329.989 374.423 328.96C373.817 327.931 372.961 327.123 371.958 326.634V337.939L372.828 338.171C374.992 338.645 377.1 339.404 379.108 340.431C380.617 341.172 381.919 342.364 382.874 343.879C383.83 345.394 384.404 347.175 384.535 349.031C385.006 352.489 384.265 356.019 382.47 358.867C380.993 361.183 378.918 362.925 376.531 363.852C375.047 364.432 373.511 364.799 371.924 365.302V369.727L364.5 369.843ZM371.889 346.866V357.379C373.088 357.18 374.216 356.612 375.149 355.736C375.63 355.292 376.015 354.729 376.273 354.09C376.531 353.451 376.656 352.753 376.638 352.051C376.62 351.348 376.459 350.66 376.168 350.039C375.878 349.418 375.465 348.881 374.961 348.47C373.972 347.855 372.945 347.319 371.889 346.866ZM364.483 336.103V325.938C363.517 326.417 362.577 326.959 361.667 327.562C361.145 327.983 360.723 328.545 360.439 329.197C360.156 329.849 360.02 330.57 360.043 331.297C360.067 332.023 360.25 332.731 360.575 333.357C360.9 333.984 361.358 334.509 361.906 334.885C362.708 335.369 363.579 335.697 364.483 336.122V336.103Z" fill="#3883BB"/>
<path d="M117.325 42.1458H42.1687V92.852H117.325V42.1458Z" fill="#D1D3D4"/>
</svg>
