<svg width="61" height="19" viewBox="0 0 61 19" fill="none" xmlns="http://www.w3.org/2000/svg">
<path d="M24.7242 0.574219L21.6719 18.4861H26.5535L29.6083 0.574219H24.7242Z" fill="white"/>
<path d="M17.5788 0.594099L12.7976 12.8095L12.2879 10.9651C11.3449 8.74271 8.66807 5.55107 5.52539 3.53965L9.89727 18.4771L15.0627 18.4683L22.7505 0.590332L17.5788 0.594099Z" fill="white"/>
<path d="M10.435 1.8761C10.1512 0.785013 9.32885 0.459821 8.30808 0.420898H0.739536L0.676758 0.777479C6.56661 2.20631 10.4639 5.64907 12.0811 9.78867L10.435 1.8761Z" fill="white"/>
<path d="M39.5013 4.00818C41.0984 3.98307 42.256 4.33212 43.155 4.69372L43.5957 4.90089L44.2561 1.01868C43.2893 0.655825 41.7738 0.266602 39.883 0.266602C35.0591 0.266602 31.659 2.69612 31.6326 6.1778C31.6013 8.75045 34.0546 10.1868 35.9078 11.0444C37.81 11.9233 38.4479 12.482 38.4391 13.2667C38.424 14.4658 36.9223 15.0157 35.5199 15.0157C33.565 15.0157 32.5266 14.7458 30.9233 14.0778L30.2942 13.7915L29.6074 17.8006C30.75 18.3015 32.8581 18.7322 35.0465 18.7548C40.178 18.7548 43.5128 16.3542 43.548 12.6339C43.5693 10.5986 42.2673 9.04551 39.446 7.77111C37.7385 6.93993 36.6938 6.38748 36.7039 5.54876C36.7039 4.80421 37.5903 4.00818 39.5013 4.00818Z" fill="white"/>
<path d="M56.7847 0.593994H53.013C51.8415 0.593994 50.9702 0.912908 50.4554 2.08058L43.207 18.4958H48.3335C48.3335 18.4958 49.1697 16.2886 49.3593 15.8052C49.9205 15.8052 54.9014 15.8127 55.6108 15.8127C55.7564 16.438 56.2059 18.4958 56.2059 18.4958H60.7347L56.7847 0.593994ZM50.7643 12.1389C51.1661 11.1106 52.7091 7.13298 52.7091 7.13298C52.6828 7.18194 53.1072 6.09713 53.3595 5.42289L53.6885 6.96724C53.6885 6.96724 54.6239 11.2437 54.8197 12.1389H50.7643Z" fill="white"/>
</svg>
